<svg id="Layer_1" data-name="Layer 1" xmlns="http://www.w3.org/2000/svg" viewBox="0 0 681.14 94"><defs><style>.cls-1,.cls-29{fill:none;stroke:#000;stroke-miterlimit:10;}.cls-1{stroke-width:2px;}.cls-2{fill:#2a2a2a;}.cls-3{fill:#2c2c2c;}.cls-4{fill:#2e2e2e;}.cls-5{fill:#2f2f2f;}.cls-6{fill:#212121;}.cls-7{fill:#242424;}.cls-8{fill:#494949;}.cls-9{fill:#232323;}.cls-10{fill:#141414;}.cls-11{fill:#313131;}.cls-12{fill:#7c7c7c;}.cls-13{fill:#9a9a9a;}.cls-14{fill:#6c6c6c;}.cls-15{fill:#b1b1b1;}.cls-16{fill:#b4b4b4;}.cls-17{fill:#919191;}.cls-18{fill:#929292;}.cls-19{fill:#b2b2b2;}.cls-20{fill:#737373;}.cls-21{fill:#747474;}.cls-22{fill:#939393;}.cls-23{fill:#787878;}.cls-24{fill:#a3a3a3;}.cls-25{font-size:70px;font-family:RussoOne-Regular, Russo One;}.cls-26{letter-spacing:-0.01em;}.cls-27{letter-spacing:0em;}.cls-28{letter-spacing:-0.04em;}.cls-29{stroke-width:3px;}</style></defs><title>Artboard 1</title><path class="cls-1" d="M109.56,45.07v.56a.6.6,0,0,0,0,.49v.64a.6.6,0,0,0,0,.49v.48c-.07.07,0,.15,0,.23s0,.13,0,.18v.4c-.11.88-.18,1.76-.36,2.63a25.09,25.09,0,0,1-7,13,26,26,0,0,1-6.09,4.5,27,27,0,0,1-7.21,2.59,16.74,16.74,0,0,1-3.16.38.2.2,0,0,0-.15,0h-.25s-.11,0-.17,0-.12,0-.16,0h-.42c-.13-.08-.28,0-.41,0s-.29,0-.42,0h-.5a.69.69,0,0,0-.49,0h-.58a.23.23,0,0,0-.18,0h-.15c-.06,0-.12,0-.17,0h-.33c-.86-.11-1.73-.18-2.58-.33a26.51,26.51,0,0,1-6.63-2.15,27,27,0,0,1-5.49-3.52,26,26,0,0,1-4.84-5.33A24.48,24.48,0,0,1,58.16,52c-.27-1.13-.39-2.28-.55-3.42V48.3c.06-.06.06-.11,0-.16v-.33c.09-.15,0-.32,0-.49a1.52,1.52,0,0,0,0-.56v-.64a1,1,0,0,0,0-.65v-.4c.06,0,0-.12,0-.18s0-.16,0-.22v-.41c.16-.6.12-1.22.23-1.83a24.72,24.72,0,0,1,2.54-7.56,25.75,25.75,0,0,1,3.73-5.28,27,27,0,0,1,4.34-3.78,25.9,25.9,0,0,1,9.87-4.22,12.51,12.51,0,0,1,2.59-.34,1,1,0,0,0,.44-.08h.41a.23.23,0,0,0,.18,0c.08,0,.17,0,.24,0h.41a1.06,1.06,0,0,0,.66,0H84a.83.83,0,0,0,.58,0H85s.11,0,.17,0h.15c.06,0,.12,0,.17,0h.17c.9.09,1.81.16,2.7.33a26.84,26.84,0,0,1,6,1.86,26.13,26.13,0,0,1,6.51,4.13,25.61,25.61,0,0,1,5.61,6.88,24.78,24.78,0,0,1,2.94,8.86,4.15,4.15,0,0,0,.11,1.11v.24c-.06.05,0,.12,0,.18a.33.33,0,0,1,0,.14C109.52,45,109.5,45,109.56,45.07Z"/><path class="cls-2" d="M83.25,21.17a.61.61,0,0,1-.66,0Z"/><path class="cls-3" d="M57.61,45.47a.59.59,0,0,1,0,.65Z"/><path class="cls-4" d="M84.58,21.17a.48.48,0,0,1-.58,0Z"/><path class="cls-5" d="M57.61,46.76c.15.18.07.38.08.57s0,0-.08,0Z"/><path class="cls-6" d="M109.56,46.12a.36.36,0,0,1,0-.49Z"/><path class="cls-7" d="M109.56,47.25a.36.36,0,0,1,0-.49Z"/><path class="cls-8" d="M57.61,47.33h.08c0,.16.1.35-.08.48Z"/><path class="cls-9" d="M82.76,71.71a.38.38,0,0,1,.49,0Z"/><path class="cls-10" d="M83.75,71.71c.12-.13.28-.06.42-.08s0,0,0,.06,0,0,0,0Z"/><path class="cls-11" d="M84.17,71.71v-.08c.14,0,.3-.07.41.08Z"/><path class="cls-12" d="M82.18,21.17c-.06.12-.16.09-.26.08s0,0,0-.06l0,0Z"/><path class="cls-13" d="M57.61,44.67c.17,0,.07.15.08.23s0,0-.08,0Z"/><path class="cls-14" d="M109.48,48c0-.1,0-.19.08-.25V48S109.51,48,109.48,48Z"/><path class="cls-15" d="M85.49,21.17c0,.12-.09.09-.16.08s0,0,0-.05,0,0,0,0Z"/><path class="cls-16" d="M109.48,44.74c0-.07,0-.15.08-.16v.17S109.51,44.78,109.48,44.74Z"/><path class="cls-17" d="M109.48,44.74h.08v.16s0,0-.08,0Z"/><path class="cls-18" d="M109.48,48h.08v.16C109.44,48.13,109.47,48.05,109.48,48Z"/><path class="cls-19" d="M57.61,48.14c.07,0,.1,0,.09.1s-.06,0-.09.06Z"/><path class="cls-20" d="M57.61,44.91h.08c0,.08,0,.15-.08.17Z"/><path class="cls-21" d="M109.48,44.91h.08v.16C109.46,45.05,109.46,45,109.48,44.91Z"/><path class="cls-16" d="M81.68,71.71c0-.12.09-.08.16-.07s0,0,0,0l0,0Z"/><path class="cls-22" d="M81.84,71.71v-.07H82s0,0,0,0l0,0Z"/><path class="cls-23" d="M82,71.71v-.07c.07,0,.14,0,.17.07Z"/><path class="cls-24" d="M81.93,21.17a.22.22,0,0,1,0,.08c-.07,0-.15,0-.16-.08Z"/><path class="cls-20" d="M85.16,21.25c-.07,0-.14,0-.16-.08h.16s0,0,0,0S85.17,21.25,85.16,21.25Z"/><path class="cls-17" d="M85.16,21.25v-.08h.17v.08Z"/><path class="cls-20" d="M85,71.71c0-.09.09-.09.16-.07s0,0,0,0,0,0,0,0Z"/><path class="cls-18" d="M85.16,71.71v-.07c.07,0,.16,0,.17.07Z"/><path d="M69.67,64.07A22.61,22.61,0,0,1,65,59.24a21,21,0,0,1-1.94-3.33,21.49,21.49,0,0,1,1.56-21,22.66,22.66,0,0,1,15-9.81,23.19,23.19,0,0,1,10.7.6,22.38,22.38,0,0,1,8.69,4.87,21.54,21.54,0,0,1,6.34,9.7A21.53,21.53,0,0,1,100,62.12a22.91,22.91,0,0,1-4.57,3.56c-.21.12-.36.23-.38-.16q-.26-5.31-.54-10.6c0-.29,0-.43.36-.52a7.26,7.26,0,0,0,3.86-2.64,3,3,0,0,0,.52-1.82A55.34,55.34,0,0,0,98.92,42c-.23-2.27-.49-4.54-.74-6.81,0-.19-.06-.38-.08-.58-.09-.72-.09-.7-.83-.71-.32,0-.36.12-.36.39,0,2.35,0,4.71,0,7.06s0,4.66,0,7c0,.3,0,.41-.39.4-1,0-1,0-1-1,0-4.47,0-8.94,0-13.42,0-.35-.09-.46-.45-.42a3.66,3.66,0,0,1-.81,0c-.37,0-.37.15-.37.42V44.61c0,1.27,0,2.54,0,3.81,0,.25-.07.32-.33.32-1,0-1,0-1-1q0-6.7,0-13.41c0-.35-.07-.48-.44-.44s-.82-.11-1,.07-.08.65-.08,1q0,6.68,0,13.34c0,.35-.08.44-.44.43-1,0-1,0-1-.93,0-4.47,0-9,0-13.42,0-.36-.07-.5-.48-.49-1,0-1,0-1.08,1-.37,3.23-.8,6.45-1,9.69A32.59,32.59,0,0,0,87,50.64a3.46,3.46,0,0,0,1.22,2,6.8,6.8,0,0,0,3.07,1.75.43.43,0,0,1,.38.52c-.19,3.34-.36,6.68-.54,10,0,.82-.11,1.64-.14,2.46a.42.42,0,0,1-.35.44,22.79,22.79,0,0,1-10.38.76l-1.6-.29a.33.33,0,0,1-.32-.36c-.13-2.65-.28-5.29-.42-7.93-.11-2.09-.22-4.18-.35-6.26,0-.32.08-.43.39-.51a7.36,7.36,0,0,0,4.93-4.3,12.08,12.08,0,0,0,1-7.17A9.62,9.62,0,0,0,79,34.68a5.58,5.58,0,0,0-5.91.1,9.76,9.76,0,0,0-4.89,8.57,12.07,12.07,0,0,0,1.29,5.83,7.3,7.3,0,0,0,4.79,4c.33.08.43.2.41.54-.17,3-.32,5.9-.48,8.85-.07,1.25-.15,2.5-.21,3.75,0,.26-.06.31-.32.19"/><path d="M70,44.25a8.24,8.24,0,0,1,1.24-3.89.53.53,0,0,0,.06-.1c.12-.14.22-.32.44-.22s.17.28.11.46a11.46,11.46,0,0,0-.45,3.14,7.92,7.92,0,0,0,.52,3,10.77,10.77,0,0,0,1.62,3.23c.13.17.28.33.41.51s.33.27.18.47-.38,0-.53,0a6,6,0,0,1-1.37-1A8,8,0,0,1,70,44.25Z"/><text class="cls-25" transform="translate(161.7 71.25)">Ki<tspan class="cls-26" x="69.72" y="0">t</tspan><tspan class="cls-27" x="99.82" y="0">chenSupp</tspan><tspan class="cls-28" x="448.41" y="0">l</tspan><tspan x="469.41" y="0">y</tspan></text><circle class="cls-29" cx="136.7" cy="46.25" r="25"/><circle cx="32.2" cy="46.25" r="25"/></svg>